<svg width="60" height="60" viewBox="0 0 60 60" fill="none" xmlns="http://www.w3.org/2000/svg">
<path fill-rule="evenodd" clip-rule="evenodd" d="M60 30C60 46.5685 46.5685 60 30 60C13.4315 60 0 46.5685 0 30C0 13.4315 13.4315 0 30 0C46.5685 0 60 13.4315 60 30ZM30.0003 46.6667C19.4719 46.6667 17.6003 39.6667 17.5253 39.3684C17.4336 39.005 17.5969 38.6267 17.9236 38.44C18.0519 38.3684 18.1936 38.3334 18.3336 38.3334C18.5469 38.3334 18.7603 38.4167 18.9203 38.575C18.9503 38.605 22.1769 41.6667 30.0003 41.6667C37.8236 41.6667 41.0486 38.605 41.0803 38.5734C41.3486 38.315 41.7553 38.26 42.0803 38.445C42.4036 38.6317 42.5669 39.0067 42.4753 39.3684C42.4003 39.6667 40.5303 46.6667 30.0003 46.6667ZM19.9997 28.3333C22.3009 28.3333 24.1663 25.7216 24.1663 22.5C24.1663 19.2783 22.3009 16.6666 19.9997 16.6666C17.6985 16.6666 15.833 19.2783 15.833 22.5C15.833 25.7216 17.6985 28.3333 19.9997 28.3333ZM44.1663 22.5C44.1663 25.7216 42.3009 28.3333 39.9997 28.3333C37.6985 28.3333 35.833 25.7216 35.833 22.5C35.833 19.2783 37.6985 16.6666 39.9997 16.6666C42.3009 16.6666 44.1663 19.2783 44.1663 22.5Z" fill="#FFFEFE"/>
</svg>
