<svg width="24" height="24" viewBox="0 0 24 24" fill="none" xmlns="http://www.w3.org/2000/svg">
<path fill-rule="evenodd" clip-rule="evenodd" d="M13.9073 2.10469C13.9073 1.33135 13.042 0.695068 12.0001 0.695068C10.9581 0.695068 10.1016 1.32484 10.0928 2.09493L11.9813 2.10462L9.15234 2.0949C9.16117 0.94303 10.4459 0 12 0C13.5541 0 14.8477 0.949557 14.8477 2.10469H13.9073Z" fill="#D9D9D9"/>
<path fill-rule="evenodd" clip-rule="evenodd" d="M3.89404 3.05762H20.106C22.2566 3.05762 24 4.34616 24 5.93566V21.122C24 22.7115 22.2566 24.0001 20.106 24.0001H3.89404C1.74342 24.0001 0 22.7115 0 21.122V5.93566C0 4.34616 1.74342 3.05762 3.89404 3.05762ZM5.40377 4.92725H18.6002C19.7585 4.92725 20.6974 5.62119 20.6974 6.47721V19.9113C20.6974 20.7673 19.7585 21.4613 18.6002 21.4613H5.40377C4.24556 21.4613 3.30664 20.7673 3.30664 19.9113V6.47721C3.30664 5.62119 4.24556 4.92725 5.40377 4.92725Z" fill="#D9D9D9"/>
<path d="M19.5232 1.85352H4.97572V6.24236H19.5232V1.85352Z" fill="#D9D9D9"/>
</svg>
