<svg width="55" height="50" viewBox="0 0 55 50" fill="none" xmlns="http://www.w3.org/2000/svg">
<path d="M29.6071 21.9444C17.3428 20.3056 13.3988 18.6111 13.3988 15.9722C13.3988 12.9444 18.8556 10.8333 27.9862 10.8333C37.6031 10.8333 41.169 13.1944 41.4931 16.6667H53.4332C53.055 11.8889 47.3821 7.5 36.0904 6.08333V0H19.8821V6C9.40078 7.16667 0.972494 10.6667 0.972494 16.0278C0.972494 22.4444 11.2917 25.6389 26.3654 27.5C39.8723 29.1667 42.5737 31.6111 42.5737 34.1944C42.5737 36.1111 39.9263 39.1667 27.9862 39.1667C16.8566 39.1667 12.4804 36.6111 11.8861 33.3333H0C0.64833 39.4167 9.50884 42.8333 19.8821 43.9722V50H36.0904V44.0278C46.6257 43 55 39.8611 55 34.1667C55 26.2778 41.8713 23.5833 29.6071 21.9444Z" fill="#FFFEFE"/>
</svg>
