<svg width="60" height="60" viewBox="0 0 60 60" fill="none" xmlns="http://www.w3.org/2000/svg">
<path fill-rule="evenodd" clip-rule="evenodd" d="M30 60C46.5683 60 60 46.5683 60 30C60 13.4333 46.5683 0 30 0C13.4333 0 0 13.4333 0 30C0 46.5683 13.4333 60 30 60ZM8.33364 20.0001C8.33364 20.9201 9.08031 21.6668 10.0003 21.6668C10.307 21.6668 17.5636 21.5834 23.002 14.3334C23.5536 13.5968 23.4053 12.5518 22.6686 12.0001C21.9303 11.4468 20.887 11.6001 20.3353 12.3334C15.942 18.1901 10.2536 18.3301 9.99364 18.3334C9.07531 18.3368 8.33364 19.0818 8.33364 20.0001ZM37.0003 14.3334C42.4386 21.5834 49.6936 21.6668 50.0003 21.6668C50.917 21.6668 51.657 20.9268 51.6603 20.0084C51.6653 19.0934 50.9253 18.3434 50.0086 18.3334C49.767 18.3318 44.067 18.2018 39.6653 12.3334C39.112 11.5968 38.0686 11.4451 37.3336 12.0001C36.597 12.5518 36.447 13.5968 37.0003 14.3334ZM8.66697 36.0001C8.99531 36.4368 9.49531 36.6668 10.002 36.6668C10.3486 36.6668 10.7003 36.5584 11.0003 36.3334C11.062 36.2868 17.312 31.6668 25.0003 31.6668C25.6736 31.6668 26.282 31.2618 26.5403 30.6384C26.7986 30.0151 26.6553 29.2984 26.1786 28.8218C20.7536 23.3968 12.0353 23.3334 11.667 23.3334C10.747 23.3334 10.002 24.0784 10.002 24.9968C10.0003 25.9168 10.7453 26.6634 11.6653 26.6668C11.7236 26.6668 16.302 26.7118 20.427 28.7801C13.9186 30.0301 9.23864 33.4901 9.00031 33.6684C8.26364 34.2201 8.11364 35.2651 8.66697 36.0001ZM49.002 36.3351C49.302 36.5584 49.652 36.6651 49.9986 36.6651C50.507 36.6651 51.007 36.4334 51.3336 35.9984C51.8836 35.2618 51.7336 34.2201 50.9986 33.6684C50.762 33.4884 46.082 30.0301 39.5736 28.7801C43.6986 26.7118 48.277 26.6668 48.337 26.6668C49.2553 26.6634 50.0003 25.9168 49.9986 24.9968C49.997 24.0784 49.2536 23.3334 48.3336 23.3334C47.9653 23.3334 39.2486 23.3968 33.822 28.8218C33.3453 29.2984 33.202 30.0151 33.4603 30.6384C33.717 31.2618 34.327 31.6668 35.0003 31.6668C42.6503 31.6668 48.9386 36.2868 49.002 36.3351ZM28.6986 49.3751C29.0153 49.7701 29.4936 50.0001 30.0003 50.0001C30.507 50.0001 30.9853 49.7701 31.3036 49.3734L36.6253 42.7201L40.3353 47.6651C40.6253 48.0518 41.0686 48.2918 41.5503 48.3268C42.0486 48.3668 42.5053 48.1851 42.847 47.8434L44.5136 46.1768C45.1653 45.5251 45.1653 44.4718 44.5136 43.8201C43.862 43.1684 42.8086 43.1684 42.157 43.8201L41.8486 44.1284L38.0003 39.0001C37.692 38.5868 37.2103 38.3418 36.6936 38.3334C36.172 38.3334 35.687 38.5568 35.3653 38.9584L30.0003 45.6651L24.6336 38.9584C24.312 38.5551 23.7986 38.3168 23.307 38.3334C22.792 38.3401 22.3103 38.5868 22.0003 39.0001L18.1536 44.1301L17.8453 43.8218C17.1936 43.1701 16.1403 43.1701 15.4886 43.8218C14.837 44.4734 14.837 45.5268 15.4886 46.1784L17.1553 47.8451C17.4953 48.1868 17.9686 48.3634 18.452 48.3284C18.9336 48.2951 19.377 48.0534 19.667 47.6668L23.3753 42.7218L28.6986 49.3751Z" fill="#FFFEFE"/>
</svg>
