<svg width="60" height="60" viewBox="0 0 60 60" fill="none" xmlns="http://www.w3.org/2000/svg">
<path fill-rule="evenodd" clip-rule="evenodd" d="M30 60C46.5683 60 60 46.5683 60 30C60 13.4333 46.5683 0 30 0C13.4333 0 0 13.4333 0 30C0 46.5683 13.4333 60 30 60ZM24.1663 22.5C24.1663 25.7216 22.3009 28.3333 19.9997 28.3333C17.6985 28.3333 15.833 25.7216 15.833 22.5C15.833 19.2783 17.6985 16.6666 19.9997 16.6666C22.3009 16.6666 24.1663 19.2783 24.1663 22.5ZM39.9997 28.3333C42.3009 28.3333 44.1663 25.7216 44.1663 22.5C44.1663 19.2783 42.3009 16.6666 39.9997 16.6666C37.6985 16.6666 35.833 19.2783 35.833 22.5C35.833 25.7216 37.6985 28.3333 39.9997 28.3333ZM10 41.6667C10 37.0717 13.7383 33.3334 18.3333 33.3334H41.6667C46.2617 33.3334 50 37.0717 50 41.6667C50 46.2617 46.2617 50 41.6667 50H18.3333C13.7383 50 10 46.2617 10 41.6667ZM46.5817 40.8334C46.1833 38.4734 44.1383 36.6667 41.6667 36.6667H40.8333V40.8334H46.5817ZM39.1667 40.8334V36.6667H34.1667V40.8334H39.1667ZM32.5 40.8334V36.6667H27.5V40.8334H32.5ZM25.8333 40.8334V36.6667H20.8333V40.8334H25.8333ZM19.1667 36.6667H18.3333C15.8617 36.6667 13.8167 38.4734 13.4183 40.8334H19.1667V36.6667ZM13.4183 42.5C13.8167 44.86 15.8617 46.6667 18.3333 46.6667H19.1667V42.5H13.4183ZM20.8333 42.5V46.6667H25.8333V42.5H20.8333ZM27.5 42.5V46.6667H32.5V42.5H27.5ZM34.1667 42.5V46.6667H39.1667V42.5H34.1667ZM40.8333 46.6667H41.6667C44.1383 46.6667 46.1833 44.86 46.5817 42.5H40.8333V46.6667Z" fill="#FFFEFE"/>
</svg>
