<svg width="60" height="60" viewBox="0 0 60 60" fill="none" xmlns="http://www.w3.org/2000/svg">
<path fill-rule="evenodd" clip-rule="evenodd" d="M30 60C46.5683 60 60 46.5683 60 30C60 13.4333 46.5683 0 30 0C13.4333 0 0 13.4333 0 30C0 46.5683 13.4333 60 30 60ZM23.3333 24.1667C23.3333 27.3884 21.4679 30 19.1667 30C16.8655 30 15 27.3884 15 24.1667C15 20.945 16.8655 18.3334 19.1667 18.3334C21.4679 18.3334 23.3333 20.945 23.3333 24.1667ZM40.8337 30C43.1348 30 45.0003 27.3884 45.0003 24.1667C45.0003 20.945 43.1348 18.3334 40.8337 18.3334C38.5325 18.3334 36.667 20.945 36.667 24.1667C36.667 27.3884 38.5325 30 40.8337 30ZM15.4999 46.5C15.1816 46.7366 14.7383 46.72 14.4416 46.4516C14.1449 46.185 14.0799 45.7466 14.2849 45.405C14.4983 45.0466 19.6466 36.6666 29.9999 36.6666C40.3533 36.6666 45.4999 45.0483 45.7149 45.405C45.9199 45.745 45.8533 46.185 45.5583 46.4516C45.2616 46.7166 44.8183 46.7366 44.4999 46.5C44.4366 46.4516 37.9433 41.6666 29.9999 41.6666C22.0366 41.6666 15.5649 46.4516 15.4999 46.5Z" fill="#FFFEFE"/>
</svg>
