<svg width="24" height="24" viewBox="0 0 24 24" fill="none" xmlns="http://www.w3.org/2000/svg">
<path d="M13.3846 6.46154C13.3846 6.73539 13.3034 7.00309 13.1513 7.23079C12.9991 7.45849 12.7829 7.63596 12.5299 7.74075C12.2769 7.84555 11.9985 7.87297 11.7299 7.81955C11.4613 7.76612 11.2146 7.63425 11.0209 7.44061C10.8273 7.24697 10.6954 7.00025 10.642 6.73166C10.5886 6.46307 10.616 6.18467 10.7208 5.93167C10.8256 5.67866 11.0031 5.46241 11.2308 5.31027C11.4585 5.15813 11.7262 5.07692 12 5.07692C12.3672 5.07692 12.7194 5.2228 12.9791 5.48247C13.2387 5.74213 13.3846 6.09431 13.3846 6.46154ZM24 12C24 14.3734 23.2962 16.6934 21.9776 18.6668C20.6591 20.6402 18.7849 22.1783 16.5922 23.0865C14.3995 23.9948 11.9867 24.2324 9.65892 23.7694C7.33115 23.3064 5.19295 22.1635 3.51472 20.4853C1.83649 18.807 0.693605 16.6689 0.230582 14.3411C-0.232441 12.0133 0.00519941 9.60051 0.913451 7.4078C1.8217 5.21508 3.35977 3.34094 5.33316 2.02236C7.30655 0.703788 9.62663 0 12 0C15.1807 0.0060992 18.2294 1.27234 20.4785 3.52146C22.7277 5.77057 23.9939 8.81927 24 12V12ZM13.3846 17.5385C13.3846 17.2646 13.3034 16.9969 13.1513 16.7692C12.9991 16.5415 12.7829 16.364 12.5299 16.2592C12.2769 16.1544 11.9985 16.127 11.7299 16.1804C11.4613 16.2339 11.2146 16.3657 11.0209 16.5594C10.8273 16.753 10.6954 16.9997 10.642 17.2683C10.5886 17.5369 10.616 17.8153 10.7208 18.0683C10.8256 18.3213 11.0031 18.5376 11.2308 18.6897C11.4585 18.8419 11.7262 18.9231 12 18.9231C12.3672 18.9231 12.7194 18.7772 12.9791 18.5175C13.2387 18.2579 13.3846 17.9057 13.3846 17.5385ZM17.0769 6.92308C17.0769 5.57659 16.542 4.28526 15.5899 3.33315C14.6378 2.38104 13.3465 1.84615 12 1.84615C9.80031 1.84856 7.66088 2.56522 5.90359 3.88833C4.14631 5.21144 2.86621 7.06943 2.2559 9.18276C1.64558 11.2961 1.73806 13.5505 2.51941 15.6067C3.30075 17.663 4.72872 19.4099 6.58847 20.5846C6.19868 19.7789 5.99744 18.895 6 18C6 16.4087 6.63214 14.8826 7.75736 13.7574C8.88258 12.6321 10.4087 12 12 12C13.3465 12 14.6378 11.4651 15.5899 10.513C16.542 9.56089 17.0769 8.26956 17.0769 6.92308Z" fill="#FFFEFE"/>
</svg>
