<svg width="24" height="24" viewBox="0 0 24 24" fill="none" xmlns="http://www.w3.org/2000/svg">
<path d="M12 0C9.62663 0 7.30655 0.703787 5.33316 2.02236C3.35977 3.34094 1.8217 5.21508 0.913451 7.4078C0.00519921 9.60051 -0.23244 12.0133 0.230582 14.3411C0.693605 16.6689 1.83649 18.807 3.51472 20.4853C5.19295 22.1635 7.33115 23.3064 9.65892 23.7694C11.9867 24.2324 14.3995 23.9948 16.5922 23.0865C18.7849 22.1783 20.6591 20.6402 21.9776 18.6668C23.2962 16.6934 24 14.3734 24 12C23.9938 8.81931 22.7275 5.77068 20.4784 3.52159C18.2293 1.2725 15.1807 0.00621837 12 0V0ZM1.41177 12C1.41488 9.19278 2.53143 6.50143 4.51643 4.51643C6.50143 2.53142 9.19278 1.41488 12 1.41176C13.3105 1.41176 14.5673 1.93235 15.4939 2.859C16.4206 3.78565 16.9412 5.04246 16.9412 6.35294C16.9412 7.66342 16.4206 8.92023 15.4939 9.84688C14.5673 10.7735 13.3105 11.2941 12 11.2941C10.8496 11.2941 9.72072 11.6065 8.73396 12.1979C7.74719 12.7894 6.93955 13.6377 6.39723 14.6522C5.8549 15.6668 5.59826 16.8096 5.6547 17.9587C5.71113 19.1077 6.07852 20.2199 6.71765 21.1765C5.10645 20.2462 3.76813 18.9088 2.83687 17.2982C1.90561 15.6876 1.41415 13.8604 1.41177 12V12ZM12 22.5882C10.6895 22.5882 9.43271 22.0676 8.50606 21.141C7.57941 20.2143 7.05883 18.9575 7.05883 17.6471C7.05883 16.3366 7.57941 15.0798 8.50606 14.1531C9.43271 13.2265 10.6895 12.7059 12 12.7059C13.1504 12.7059 14.2793 12.3935 15.266 11.8021C16.2528 11.2106 17.0605 10.3623 17.6028 9.34775C18.1451 8.33316 18.4017 7.19035 18.3453 6.0413C18.2889 4.89225 17.9215 3.78009 17.2824 2.82353C19.3034 3.98693 20.8839 5.78502 21.7784 7.93864C22.6729 10.0923 22.8313 12.481 22.2292 14.7339C21.6271 16.9868 20.2981 18.9779 18.4484 20.3981C16.5988 21.8184 14.332 22.5882 12 22.5882V22.5882ZM13.4118 17.6471C13.4118 17.9263 13.329 18.1992 13.1738 18.4314C13.0187 18.6636 12.7982 18.8445 12.5403 18.9514C12.2823 19.0582 11.9984 19.0862 11.7246 19.0317C11.4507 18.9772 11.1992 18.8428 11.0017 18.6453C10.8043 18.4479 10.6698 18.1963 10.6154 17.9225C10.5609 17.6486 10.5888 17.3648 10.6957 17.1068C10.8026 16.8488 10.9835 16.6283 11.2157 16.4732C11.4478 16.3181 11.7208 16.2353 12 16.2353C12.3744 16.2353 12.7335 16.384 12.9983 16.6488C13.263 16.9135 13.4118 17.2726 13.4118 17.6471ZM10.8235 6.35294C10.8235 6.12026 10.8925 5.8928 11.0218 5.69933C11.1511 5.50586 11.3348 5.35507 11.5498 5.26602C11.7648 5.17698 12.0013 5.15368 12.2295 5.19907C12.4577 5.24447 12.6674 5.35652 12.8319 5.52105C12.9964 5.68558 13.1085 5.89521 13.1539 6.12342C13.1993 6.35163 13.176 6.58818 13.0869 6.80316C12.9979 7.01813 12.8471 7.20187 12.6536 7.33114C12.4601 7.46041 12.2327 7.52941 12 7.52941C11.688 7.52941 11.3887 7.40546 11.1681 7.18483C10.9475 6.9642 10.8235 6.66496 10.8235 6.35294Z" fill="#D9D9D9"/>
</svg>
