<svg width="26" height="26" viewBox="0 0 26 26" fill="none" xmlns="http://www.w3.org/2000/svg">
<mask id="path-1-outside-1_588_4938" maskUnits="userSpaceOnUse" x="0" y="0" width="16" height="16" fill="black">
<rect fill="white" width="16" height="16"/>
<path fill-rule="evenodd" clip-rule="evenodd" d="M14.947 7.87267C14.947 11.6683 11.8249 14.7453 7.9735 14.7453C4.12214 14.7453 1 11.6683 1 7.87267C1 4.077 4.12214 1 7.9735 1C11.8249 1 14.947 4.077 14.947 7.87267ZM5.07013 6.75082C5.51609 6.75082 5.87756 6.39458 5.87756 5.95507C5.87756 5.51555 5.51609 5.16162 5.07013 5.16162C4.62416 5.16162 4.2627 5.51555 4.2627 5.95507C4.2627 6.39458 4.62416 6.75082 5.07013 6.75082ZM11.5104 5.95507C11.5104 6.39458 11.1489 6.75082 10.7029 6.75082C10.257 6.75082 9.89551 6.39458 9.89551 5.95507C9.89551 5.51555 10.257 5.16162 10.7029 5.16162C11.1489 5.16162 11.5104 5.51555 11.5104 5.95507ZM3.61068 10.1508C5.05038 12.5769 7.76897 13.6347 9.81027 12.7801L9.8103 12.78C10.6437 12.4312 11.2509 11.8303 11.6599 11.2854C12.0669 10.7432 12.2994 10.2274 12.3725 10.001L11.5541 9.73679C11.5121 9.86667 11.3257 10.2981 10.9721 10.7691C10.6206 11.2374 10.1258 11.7157 9.4782 11.9867L9.47816 11.9868C7.92827 12.6357 5.6286 11.8661 4.35026 9.71191L3.61068 10.1508Z"/>
</mask>
<path d="M9.61473 12.3199L9.6147 12.3199L10.0058 13.2402L10.0059 13.2402L9.61473 12.3199ZM9.81027 12.7801L10.1965 13.7025L10.2014 13.7004L9.81027 12.7801ZM3.61068 10.1508L3.10034 9.29082L2.24037 9.80116L2.7507 10.6611L3.61068 10.1508ZM9.8103 12.78L9.42417 11.8576L9.41916 11.8597L9.8103 12.78ZM11.6599 11.2854L12.4597 11.8857L12.4597 11.8857L11.6599 11.2854ZM12.3725 10.001L13.3241 10.3082L13.6313 9.35661L12.6797 9.04937L12.3725 10.001ZM11.5541 9.73679L11.8613 8.78515L10.9097 8.47792L10.6024 9.42955L11.5541 9.73679ZM10.9721 10.7691L11.7719 11.3694L11.7719 11.3694L10.9721 10.7691ZM9.4782 11.9867L9.84959 12.9152L9.85698 12.9123L9.86432 12.9092L9.4782 11.9867ZM9.47816 11.9868L9.10677 11.0583L9.09934 11.0613L9.09196 11.0644L9.47816 11.9868ZM4.35026 9.71191L5.21023 9.20158L4.6999 8.3416L3.83992 8.85193L4.35026 9.71191ZM7.9735 15.7453C12.3634 15.7453 15.947 12.2343 15.947 7.87267H13.947C13.947 11.1024 11.2863 13.7453 7.9735 13.7453V15.7453ZM0 7.87267C0 12.2343 3.58364 15.7453 7.9735 15.7453V13.7453C4.66064 13.7453 2 11.1024 2 7.87267H0ZM7.9735 0C3.58364 0 0 3.51103 0 7.87267H2C2 4.64296 4.66064 2 7.9735 2V0ZM15.947 7.87267C15.947 3.51103 12.3634 0 7.9735 0V2C11.2863 2 13.947 4.64296 13.947 7.87267H15.947ZM4.87756 5.95507C4.87756 5.82862 4.97759 5.75082 5.07013 5.75082V7.75082C6.0546 7.75082 6.87756 6.96055 6.87756 5.95507H4.87756ZM5.07013 6.16162C4.98141 6.16162 4.87756 6.08528 4.87756 5.95507H6.87756C6.87756 4.94582 6.05077 4.16162 5.07013 4.16162V6.16162ZM5.2627 5.95507C5.2627 6.08528 5.15884 6.16162 5.07013 6.16162V4.16162C4.08948 4.16162 3.2627 4.94582 3.2627 5.95507H5.2627ZM5.07013 5.75082C5.16267 5.75082 5.2627 5.82862 5.2627 5.95507H3.2627C3.2627 6.96055 4.08566 7.75082 5.07013 7.75082V5.75082ZM10.7029 7.75082C11.6874 7.75082 12.5104 6.96055 12.5104 5.95507H10.5104C10.5104 5.82862 10.6104 5.75082 10.7029 5.75082V7.75082ZM8.89551 5.95507C8.89551 6.96055 9.71847 7.75082 10.7029 7.75082V5.75082C10.7955 5.75082 10.8955 5.82862 10.8955 5.95507H8.89551ZM10.7029 4.16162C9.72229 4.16162 8.89551 4.94582 8.89551 5.95507H10.8955C10.8955 6.08527 10.7917 6.16162 10.7029 6.16162V4.16162ZM12.5104 5.95507C12.5104 4.94582 11.6836 4.16162 10.7029 4.16162V6.16162C10.6142 6.16162 10.5104 6.08527 10.5104 5.95507H12.5104ZM9.42407 11.8576C7.95622 12.4722 5.72406 11.7526 4.47066 9.64046L2.7507 10.6611C4.3767 13.4011 7.58172 14.7972 10.1965 13.7025L9.42407 11.8576ZM9.41916 11.8597L9.41912 11.8597L10.2014 13.7004L10.2014 13.7004L9.41916 11.8597ZM10.8601 10.6851C10.518 11.141 10.0415 11.5992 9.42417 11.8576L10.1964 13.7025C11.246 13.2631 11.9839 12.5196 12.4597 11.8857L10.8601 10.6851ZM11.4208 9.69377C11.384 9.80795 11.205 10.2256 10.8601 10.6851L12.4597 11.8857C12.9288 11.2608 13.2148 10.6468 13.3241 10.3082L11.4208 9.69377ZM11.2468 10.6884L12.0652 10.9526L12.6797 9.04937L11.8613 8.78515L11.2468 10.6884ZM11.7719 11.3694C12.1875 10.8157 12.4275 10.2861 12.5057 10.044L10.6024 9.42955C10.6044 9.42327 10.5738 9.50915 10.4945 9.66024C10.4197 9.80276 10.3126 9.98196 10.1723 10.1688L11.7719 11.3694ZM9.86432 12.9092C10.728 12.5477 11.3535 11.9269 11.7719 11.3694L10.1723 10.1688C9.8878 10.5479 9.52365 10.8837 9.09208 11.0643L9.86432 12.9092ZM9.84956 12.9152L9.84959 12.9152L9.10681 11.0583L9.10677 11.0583L9.84956 12.9152ZM3.49028 10.2222C4.95786 12.6953 7.74555 13.7963 9.86437 12.9092L9.09196 11.0644C8.11099 11.4751 6.29933 11.0368 5.21023 9.20158L3.49028 10.2222ZM4.12101 11.0108L4.86059 10.5719L3.83992 8.85193L3.10034 9.29082L4.12101 11.0108Z" fill="#D9D9D9" mask="url(#path-1-outside-1_588_4938)"/>
<mask id="path-3-outside-2_588_4938" maskUnits="userSpaceOnUse" x="10.0527" y="10.2546" width="16" height="16" fill="black">
<rect fill="white" x="10.0527" y="10.2546" width="16" height="16"/>
<path fill-rule="evenodd" clip-rule="evenodd" d="M24.9997 18.1273C24.9997 21.923 21.8776 25 18.0262 25C14.1749 25 11.0527 21.923 11.0527 18.1273C11.0527 14.3316 14.1749 11.2546 18.0262 11.2546C21.8776 11.2546 24.9997 14.3316 24.9997 18.1273ZM15.1229 17.0077C15.5688 17.0077 15.9303 16.6514 15.9303 16.2119C15.9303 15.7724 15.5688 15.4185 15.1229 15.4185C14.6769 15.4185 14.3154 15.7724 14.3154 16.2119C14.3154 16.6514 14.6769 17.0077 15.1229 17.0077ZM21.5641 16.2119C21.5641 16.6514 21.2026 17.0077 20.7566 17.0077C20.3107 17.0077 19.9492 16.6514 19.9492 16.2119C19.9492 15.7724 20.3107 15.4185 20.7566 15.4185C21.2026 15.4185 21.5641 15.7724 21.5641 16.2119ZM22.6709 21.8289C21.2312 19.4029 18.5126 18.345 16.4713 19.1997L16.4713 19.1997C15.6379 19.5486 15.0307 20.1494 14.6217 20.6943C14.2147 21.2365 13.9822 21.7524 13.9092 21.9787L14.7276 22.2429C14.7695 22.1131 14.956 21.6816 15.3095 21.2106C15.661 20.7423 16.1558 20.2641 16.8034 19.993L16.8035 19.993C18.3533 19.344 20.653 20.1137 21.9314 22.2678L22.6709 21.8289Z"/>
</mask>
<path d="M16.669 19.659L16.669 19.6589L16.2737 18.7404L16.2737 18.7404L16.669 19.659ZM16.4713 19.1997L16.0851 18.2772L16.076 18.2811L16.4713 19.1997ZM22.6709 21.8289L23.1813 22.6889L24.0412 22.1786L23.5309 21.3186L22.6709 21.8289ZM16.4713 19.1997L16.8575 20.1222L16.8666 20.1182L16.4713 19.1997ZM14.6217 20.6943L15.4215 21.2946L15.4215 21.2946L14.6217 20.6943ZM13.9092 21.9787L12.9575 21.6715L12.6503 22.6231L13.6019 22.9304L13.9092 21.9787ZM14.7276 22.2429L14.4203 23.1946L15.372 23.5018L15.6792 22.5502L14.7276 22.2429ZM15.3095 21.2106L16.1093 21.8109L16.1093 21.8109L15.3095 21.2106ZM16.8034 19.993L16.428 19.0661L16.4173 19.0705L16.8034 19.993ZM16.8035 19.993L17.1789 20.9199L17.1897 20.9154L16.8035 19.993ZM21.9314 22.2678L21.0714 22.7781L21.5817 23.6381L22.4417 23.1278L21.9314 22.2678ZM18.0262 26C22.4161 26 25.9997 22.4889 25.9997 18.1273H23.9997C23.9997 21.357 21.3391 24 18.0262 24V26ZM10.0527 18.1273C10.0527 22.4889 13.6364 26 18.0262 26V24C14.7134 24 12.0527 21.357 12.0527 18.1273H10.0527ZM18.0262 10.2546C13.6364 10.2546 10.0527 13.7657 10.0527 18.1273H12.0527C12.0527 14.8976 14.7134 12.2546 18.0262 12.2546V10.2546ZM25.9997 18.1273C25.9997 13.7657 22.4161 10.2546 18.0262 10.2546V12.2546C21.3391 12.2546 23.9997 14.8976 23.9997 18.1273H25.9997ZM14.9303 16.2119C14.9303 16.0855 15.0303 16.0077 15.1229 16.0077V18.0077C16.1073 18.0077 16.9303 17.2174 16.9303 16.2119H14.9303ZM15.1229 16.4185C15.0341 16.4185 14.9303 16.3421 14.9303 16.2119H16.9303C16.9303 15.2027 16.1035 14.4185 15.1229 14.4185V16.4185ZM15.3154 16.2119C15.3154 16.3421 15.2116 16.4185 15.1229 16.4185V14.4185C14.1422 14.4185 13.3154 15.2027 13.3154 16.2119H15.3154ZM15.1229 16.0077C15.2154 16.0077 15.3154 16.0855 15.3154 16.2119H13.3154C13.3154 17.2174 14.1384 18.0077 15.1229 18.0077V16.0077ZM20.7566 18.0077C21.7411 18.0077 22.5641 17.2174 22.5641 16.2119H20.5641C20.5641 16.0855 20.6641 16.0077 20.7566 16.0077V18.0077ZM18.9492 16.2119C18.9492 17.2174 19.7722 18.0077 20.7566 18.0077V16.0077C20.8492 16.0077 20.9492 16.0855 20.9492 16.2119H18.9492ZM20.7566 14.4185C19.776 14.4185 18.9492 15.2027 18.9492 16.2119H20.9492C20.9492 16.3421 20.8454 16.4185 20.7566 16.4185V14.4185ZM22.5641 16.2119C22.5641 15.2027 21.7373 14.4185 20.7566 14.4185V16.4185C20.6679 16.4185 20.5641 16.3421 20.5641 16.2119H22.5641ZM16.8575 20.1221C18.3254 19.5075 20.5576 20.2271 21.811 22.3393L23.5309 21.3186C21.9049 18.5786 18.6999 17.1825 16.0852 18.2773L16.8575 20.1221ZM16.8666 20.1182L16.8667 20.1182L16.076 18.2811L16.076 18.2811L16.8666 20.1182ZM15.4215 21.2946C15.7636 20.8388 16.2402 20.3805 16.8574 20.1221L16.0852 18.2772C15.0356 18.7166 14.2977 19.4601 13.8219 20.094L15.4215 21.2946ZM14.8608 22.286C14.8977 22.1718 15.0766 21.7541 15.4215 21.2946L13.8219 20.094C13.3529 20.719 13.0668 21.3329 12.9575 21.6715L14.8608 22.286ZM15.0348 21.2913L14.2164 21.0271L13.6019 22.9304L14.4203 23.1946L15.0348 21.2913ZM14.5097 20.6103C14.0941 21.1641 13.8541 21.6937 13.7759 21.9357L15.6792 22.5502C15.6772 22.5565 15.7078 22.4706 15.7871 22.3195C15.8619 22.177 15.969 21.9978 16.1093 21.8109L14.5097 20.6103ZM16.4173 19.0705C15.5536 19.432 14.9282 20.0528 14.5097 20.6103L16.1093 21.8109C16.3938 21.4318 16.758 21.0961 17.1895 20.9154L16.4173 19.0705ZM16.428 19.0661L16.428 19.0661L17.1788 20.9198L17.1789 20.9198L16.428 19.0661ZM22.7913 21.7575C21.3237 19.2844 18.5361 18.1834 16.4172 19.0705L17.1897 20.9154C18.1706 20.5046 19.9823 20.9429 21.0714 22.7781L22.7913 21.7575ZM22.1606 20.9689L21.421 21.4078L22.4417 23.1278L23.1813 22.6889L22.1606 20.9689Z" fill="#D9D9D9" mask="url(#path-3-outside-2_588_4938)"/>
</svg>
