<svg width="24" height="24" viewBox="0 0 24 24" fill="none" xmlns="http://www.w3.org/2000/svg">
<path fill-rule="evenodd" clip-rule="evenodd" d="M13.947 6.87267C13.947 10.6683 10.8249 13.7453 6.9735 13.7453C3.12214 13.7453 0 10.6683 0 6.87267C0 3.077 3.12214 0 6.9735 0C10.8249 0 13.947 3.077 13.947 6.87267ZM4.07013 5.75082C4.51609 5.75082 4.87756 5.39458 4.87756 4.95507C4.87756 4.51555 4.51609 4.16162 4.07013 4.16162C3.62416 4.16162 3.2627 4.51555 3.2627 4.95507C3.2627 5.39458 3.62416 5.75082 4.07013 5.75082ZM10.5104 4.95507C10.5104 5.39458 10.1489 5.75082 9.70294 5.75082C9.25697 5.75082 8.89551 5.39458 8.89551 4.95507C8.89551 4.51555 9.25697 4.16162 9.70294 4.16162C10.1489 4.16162 10.5104 4.51555 10.5104 4.95507ZM2.61068 9.1508C4.05038 11.5769 6.76897 12.6347 8.81027 11.7801L8.8103 11.78C9.64375 11.4312 10.2509 10.8303 10.6599 10.2854C11.0669 9.7432 11.2994 9.22736 11.3725 9.00101L10.5541 8.73679C10.5121 8.86667 10.3257 9.29811 9.97211 9.76913C9.62063 10.2374 9.12581 10.7157 8.4782 10.9867L8.47816 10.9868C6.92827 11.6357 4.6286 10.8661 3.35026 8.71191L2.61068 9.1508Z" fill="#FFFEFE"/>
<path fill-rule="evenodd" clip-rule="evenodd" d="M23.9997 17.1273C23.9997 20.923 20.8776 24 17.0262 24C13.1749 24 10.0527 20.923 10.0527 17.1273C10.0527 13.3316 13.1749 10.2546 17.0262 10.2546C20.8776 10.2546 23.9997 13.3316 23.9997 17.1273ZM14.1229 16.0077C14.5688 16.0077 14.9303 15.6514 14.9303 15.2119C14.9303 14.7724 14.5688 14.4185 14.1229 14.4185C13.6769 14.4185 13.3154 14.7724 13.3154 15.2119C13.3154 15.6514 13.6769 16.0077 14.1229 16.0077ZM20.5641 15.2119C20.5641 15.6514 20.2026 16.0077 19.7566 16.0077C19.3107 16.0077 18.9492 15.6514 18.9492 15.2119C18.9492 14.7724 19.3107 14.4185 19.7566 14.4185C20.2026 14.4185 20.5641 14.7724 20.5641 15.2119ZM21.6709 20.8289C20.2312 18.4029 17.5126 17.345 15.4713 18.1997L15.4713 18.1997C14.6379 18.5486 14.0307 19.1494 13.6217 19.6943C13.2147 20.2365 12.9822 20.7524 12.9092 20.9787L13.7276 21.2429C13.7695 21.1131 13.956 20.6816 14.3095 20.2106C14.661 19.7423 15.1558 19.2641 15.8034 18.993L15.8035 18.993C17.3533 18.344 19.653 19.1137 20.9314 21.2678L21.6709 20.8289Z" fill="#FFFEFE"/>
</svg>
