<svg width="60" height="60" viewBox="0 0 60 60" fill="none" xmlns="http://www.w3.org/2000/svg">
<path fill-rule="evenodd" clip-rule="evenodd" d="M30 60C46.5683 60 60 46.5683 60 30C60 13.4333 46.5683 0 30 0C13.4333 0 0 13.4333 0 30C0 46.5683 13.4333 60 30 60ZM23.3333 27.5C23.3333 30.7216 21.4679 33.3333 19.1667 33.3333C16.8655 33.3333 15 30.7216 15 27.5C15 24.2783 16.8655 21.6666 19.1667 21.6666C21.4679 21.6666 23.3333 24.2783 23.3333 27.5ZM40.8337 33.3333C43.1348 33.3333 45.0003 30.7216 45.0003 27.5C45.0003 24.2783 43.1348 21.6666 40.8337 21.6666C38.5325 21.6666 36.667 24.2783 36.667 27.5C36.667 30.7216 38.5325 33.3333 40.8337 33.3333ZM18.3337 43.3333H41.667C42.5887 43.3333 43.3337 42.5883 43.3337 41.6667C43.3337 40.745 42.5887 40 41.667 40H18.3337C17.4137 40 16.667 40.745 16.667 41.6667C16.667 42.5883 17.4137 43.3333 18.3337 43.3333Z" fill="#FFFEFE"/>
</svg>
