<svg width="60" height="60" viewBox="0 0 60 60" fill="none" xmlns="http://www.w3.org/2000/svg">
<path fill-rule="evenodd" clip-rule="evenodd" d="M30 60C46.5683 60 60 46.5683 60 30C60 13.4317 46.5683 0 30 0C13.4317 0 0 13.4317 0 30C0 46.5683 13.4317 60 30 60ZM30 40.8331C37.2333 40.8331 39.1233 48.0581 39.1417 48.1315C39.2333 48.4948 39.07 48.8731 38.7433 49.0598C38.615 49.1315 38.4733 49.1665 38.3333 49.1665C38.125 49.1665 37.9183 49.0881 37.76 48.9381C37.695 48.8831 35.9833 47.4998 30 47.4998C23.9267 47.4998 22.2533 48.9248 22.2383 48.9381C21.9667 49.1815 21.5583 49.2248 21.245 49.0381C20.9317 48.8498 20.77 48.4865 20.8583 48.1315C20.8767 48.0581 22.7667 40.8331 30 40.8331ZM35.175 12.4115C35.33 12.7215 39.0767 19.9998 48.3333 19.9998C49.255 19.9998 50 19.2531 50 18.3331C50 17.4131 49.255 16.6665 48.3333 16.6665C41.1883 16.6665 38.2783 11.1565 38.1533 10.9131C37.74 10.0948 36.7417 9.76313 35.92 10.1748C35.0967 10.5865 34.7633 11.5881 35.175 12.4115ZM10 18.3331C10 19.2531 10.7467 19.9998 11.6667 19.9998C22.84 19.9998 24.8683 12.3948 24.95 12.0715C25.1717 11.1848 24.6367 10.2948 23.7533 10.0631C22.875 9.83146 21.9633 10.3648 21.7217 11.2448C21.66 11.4665 20.1383 16.6665 11.6667 16.6665C10.7467 16.6665 10 17.4131 10 18.3331ZM19.9997 33.3333C22.3009 33.3333 24.1663 30.7216 24.1663 27.5C24.1663 24.2783 22.3009 21.6666 19.9997 21.6666C17.6985 21.6666 15.833 24.2783 15.833 27.5C15.833 30.7216 17.6985 33.3333 19.9997 33.3333ZM44.1663 27.5C44.1663 30.7216 42.3009 33.3333 39.9997 33.3333C37.6985 33.3333 35.833 30.7216 35.833 27.5C35.833 24.2783 37.6985 21.6666 39.9997 21.6666C42.3009 21.6666 44.1663 24.2783 44.1663 27.5Z" fill="#FFFEFE"/>
</svg>
