<svg width="61" height="56" viewBox="0 0 61 56" fill="none" xmlns="http://www.w3.org/2000/svg">
<path d="M11.25 20.1875C11.25 20.1875 4.17837 23.3125 3 34.25M49.75 20.1875C49.75 20.1875 56.8216 23.3125 58 34.25M22.25 20.1875C22.25 20.1875 28.85 22.0109 30.5 31.125M38.75 20.1875C38.75 20.1875 32.15 22.0109 30.5 31.125M25 43.625C25 43.625 19.225 44.7969 16.75 53M36 43.625C36 43.625 41.775 44.7969 44.25 53" stroke="#FFFEFE" stroke-width="4.16667" stroke-linecap="round"/>
<path d="M30.5 46.75C34.297 46.75 37.375 43.2522 37.375 38.9375C37.375 34.6228 34.297 31.125 30.5 31.125C26.703 31.125 23.625 34.6228 23.625 38.9375C23.625 43.2522 26.703 46.75 30.5 46.75Z" stroke="#FFFEFE" stroke-width="4.16667" stroke-linecap="round" stroke-linejoin="round"/>
<path d="M44.25 21.75C48.8063 21.75 52.5 17.5527 52.5 12.375C52.5 7.19733 48.8063 3 44.25 3C39.6937 3 36 7.19733 36 12.375C36 17.5527 39.6937 21.75 44.25 21.75Z" stroke="#FFFEFE" stroke-width="4.16667" stroke-linecap="round" stroke-linejoin="round"/>
<path d="M16.75 21.75C21.3063 21.75 25 17.5527 25 12.375C25 7.19733 21.3063 3 16.75 3C12.1936 3 8.49997 7.19733 8.49997 12.375C8.49997 17.5527 12.1936 21.75 16.75 21.75Z" stroke="#FFFEFE" stroke-width="4.16667" stroke-linecap="round" stroke-linejoin="round"/>
</svg>
