<svg width="57" height="52" viewBox="0 0 57 52" fill="none" xmlns="http://www.w3.org/2000/svg">
<path fill-rule="evenodd" clip-rule="evenodd" d="M6 1C3.23858 1 1 3.23858 1 6V46C1 48.7614 3.23857 51 6 51H51C53.7614 51 56 48.7614 56 46V6C56 3.23858 53.7614 1 51 1H6ZM41.9893 28.252C44.6043 25.155 44.6781 20.0461 42.1552 16.838V16.835C39.6323 13.6269 35.4654 13.5363 32.8504 16.6333L29.0154 21.172L25.3156 16.4666C22.7927 13.2585 18.6258 13.1678 16.0107 16.2648C13.3957 19.3617 13.3219 24.4707 15.8448 27.6788L19.5446 32.3842L28.6835 44L38.1542 32.7907L41.9893 28.252Z" fill="#FFFEFE"/>
<path d="M42.1552 16.838H41.9152V16.921L41.9665 16.9863L42.1552 16.838ZM41.9893 28.252L42.1726 28.4069L42.1726 28.4068L41.9893 28.252ZM42.1552 16.835H42.3952V16.752L42.3438 16.6867L42.1552 16.835ZM32.8504 16.6333L33.0337 16.7882L33.0337 16.7881L32.8504 16.6333ZM29.0154 21.172L28.8267 21.3203L29.0087 21.5517L29.1987 21.3269L29.0154 21.172ZM25.3156 16.4666L25.5042 16.3182L25.5042 16.3182L25.3156 16.4666ZM16.0107 16.2648L16.1941 16.4196L16.0107 16.2648ZM15.8448 27.6788L16.0335 27.5305L16.0335 27.5304L15.8448 27.6788ZM19.5446 32.3842L19.3559 32.5325L19.356 32.5326L19.5446 32.3842ZM28.6835 44L28.4949 44.1484L28.6769 44.3797L28.8668 44.1549L28.6835 44ZM38.1542 32.7907L37.9709 32.6358L37.9709 32.6358L38.1542 32.7907ZM1.24 6C1.24 3.37113 3.37112 1.24 6 1.24V0.76C3.10603 0.76 0.76 3.10603 0.76 6H1.24ZM1.24 46V6H0.76V46H1.24ZM6 50.76C3.37112 50.76 1.24 48.6289 1.24 46H0.76C0.76 48.894 3.10603 51.24 6 51.24V50.76ZM51 50.76H6V51.24H51V50.76ZM55.76 46C55.76 48.6289 53.6289 50.76 51 50.76V51.24C53.894 51.24 56.24 48.894 56.24 46H55.76ZM55.76 6V46H56.24V6H55.76ZM51 1.24C53.6289 1.24 55.76 3.37112 55.76 6H56.24C56.24 3.10603 53.894 0.76 51 0.76V1.24ZM6 1.24H51V0.76H6V1.24ZM41.9665 16.9863C44.4198 20.1058 44.3467 25.0881 41.8059 28.0971L42.1726 28.4068C44.8619 25.2219 44.9364 19.9863 42.3438 16.6896L41.9665 16.9863ZM41.9152 16.835V16.838H42.3952V16.835H41.9152ZM33.0337 16.7881C34.2986 15.2902 35.9267 14.5748 37.5322 14.6097C39.1378 14.6445 40.7453 15.4304 41.9665 16.9834L42.3438 16.6867C41.0422 15.0316 39.3048 14.1681 37.5426 14.1298C35.7801 14.0915 34.0173 14.8793 32.667 16.4784L33.0337 16.7881ZM29.1987 21.3269L33.0337 16.7882L32.6671 16.4784L28.832 21.0171L29.1987 21.3269ZM25.1269 16.6149L28.8267 21.3203L29.204 21.0236L25.5042 16.3182L25.1269 16.6149ZM16.1941 16.4196C17.4589 14.9217 19.0871 14.2064 20.6925 14.2412C22.2982 14.2761 23.9056 15.062 25.1269 16.6149L25.5042 16.3182C24.2026 14.6631 22.4652 13.7996 20.7029 13.7613C18.9404 13.7231 17.1776 14.5109 15.8274 16.1099L16.1941 16.4196ZM16.0335 27.5304C13.5802 24.4109 13.6533 19.4286 16.1941 16.4196L15.8274 16.1099C13.1381 19.2948 13.0636 24.5305 15.6562 27.8272L16.0335 27.5304ZM19.7333 32.2359L16.0335 27.5305L15.6561 27.8271L19.3559 32.5325L19.7333 32.2359ZM28.8721 43.8516L19.7332 32.2358L19.356 32.5326L28.4949 44.1484L28.8721 43.8516ZM37.9709 32.6358L28.5002 43.8451L28.8668 44.1549L38.3376 32.9456L37.9709 32.6358ZM41.8059 28.0971L37.9709 32.6358L38.3376 32.9456L42.1726 28.4069L41.8059 28.0971Z" fill="#8E9BCD"/>
</svg>
