<svg width="24" height="24" viewBox="0 0 24 24" fill="none" xmlns="http://www.w3.org/2000/svg">
<path d="M21.8282 13.5502L21.8339 13.5528C21.9216 13.0466 21.964 12.5296 21.964 12.0179C21.964 11.5599 21.9273 11.0991 21.8594 10.6491C21.9273 11.0964 21.9612 11.5491 21.9612 12.0019C21.9612 12.5215 21.9159 13.0412 21.8282 13.5502ZM0.316954 8.95347C0.302808 8.94275 0.29149 8.93204 0.277344 8.91864C0.297149 8.93739 0.316954 8.95614 0.339589 8.9749L2.19279 10.4723V10.4696L0.316954 8.95347ZM15.4991 3.16743H15.5019L15.0633 0.922661C15.0577 0.895873 15.052 0.871765 15.0435 0.847656C15.0464 0.86105 15.052 0.877122 15.0549 0.890516L15.4991 3.16743ZM17.0269 17.8066L17.9153 17.1155L20.5409 17.9968C21.0219 17.3834 21.4265 16.7244 21.7462 16.0253L19.6327 14.3136L19.8194 13.2394C19.8901 12.8349 19.9269 12.4197 19.9269 12.0045C19.9269 11.5893 19.8901 11.1741 19.8194 10.7696L19.6355 9.70083L21.749 7.98913C21.4265 7.29266 21.0247 6.63101 20.5437 6.01759L17.9181 6.89889L17.0297 6.20778C16.3535 5.68275 15.5981 5.27022 14.7861 4.98092L13.7081 4.59787L13.2016 1.99951C12.4026 1.91379 11.5958 1.91379 10.7967 1.99951L10.2903 4.60322L9.21798 4.98628C8.41162 5.27558 7.66185 5.68811 6.99131 6.21046L6.1029 6.90424L3.46032 6.01491C2.97934 6.62834 2.57475 7.2873 2.25503 7.98645L4.39117 9.71422L4.20726 10.7857C4.13653 11.1848 4.10258 11.5947 4.10258 12.0045C4.10258 12.4117 4.13936 12.8242 4.20726 13.2233L4.39117 14.2948L2.25503 16.0226C2.57758 16.7191 2.97934 17.3807 3.46032 17.9941L6.1029 17.1048L6.99131 17.7986C7.66185 18.321 8.41162 18.7335 9.21798 19.0228L10.2875 19.4112L10.7939 22.0149C11.5918 22.1006 12.4038 22.1006 13.1988 22.0149L13.7053 19.4166L14.7832 19.0335C15.5981 18.7442 16.3507 18.3317 17.0269 17.8066V17.8066ZM12.0162 16.4592C11.1532 16.4592 10.3412 16.2503 9.63106 15.8833C8.07776 15.0851 7.02243 13.5287 7.02243 11.7367C7.02243 9.13294 9.25193 7.02211 12.002 7.02211C13.8948 7.02211 15.5387 8.02127 16.3818 9.49189C16.7694 10.1616 16.9901 10.9304 16.9901 11.7501C16.9901 14.3511 14.7634 16.4592 12.0162 16.4592V16.4592ZM3.37827 20.0621C3.22266 20.113 3.06139 20.1237 2.90861 20.0943C3.06988 20.1264 3.23964 20.1211 3.40374 20.0675L5.7068 19.2907C5.70397 19.288 5.69831 19.2853 5.69548 19.2826L3.37827 20.0621V20.0621ZM23.6814 8.95347L21.8282 10.4536C21.8282 10.4589 21.8311 10.4669 21.8311 10.4723L23.6814 8.9749C23.8823 8.81149 23.9955 8.57577 23.9983 8.332C23.9898 8.56773 23.8767 8.79542 23.6814 8.95347Z" fill="#FFFEFE"/>
<path d="M23.9928 15.6102C24.0069 15.7361 23.9928 15.8647 23.9447 15.9879L23.9192 16.0576C23.4078 17.407 22.6439 18.6583 21.6643 19.7515L21.6133 19.8078C21.4946 19.9406 21.3361 20.0361 21.1587 20.0816C20.9813 20.127 20.7935 20.1203 20.6202 20.0623L18.32 19.2881C17.4762 19.9463 16.523 20.4677 15.4992 20.8311L15.055 23.108C15.0215 23.2793 14.9337 23.4369 14.8033 23.5599C14.6729 23.6828 14.5061 23.7653 14.325 23.7964L14.2486 23.8098C13.5092 23.9363 12.7592 24 12.0078 24H12.0163C12.7717 24 13.5272 23.9357 14.2628 23.8098L14.3392 23.7964C14.5203 23.7653 14.6871 23.6828 14.8175 23.5599C14.9478 23.4369 15.0356 23.2793 15.0691 23.108L15.5133 20.8337C16.5375 20.4694 17.4825 19.9524 18.3313 19.2935L20.6287 20.0676C20.802 20.1256 20.9898 20.1324 21.1672 20.0869C21.3446 20.0415 21.5031 19.946 21.6218 19.8131L21.6727 19.7569C22.6574 18.6559 23.4128 17.4157 23.9249 16.0683L23.9503 15.9986C23.9956 15.8727 24.0098 15.7388 23.9928 15.6102V15.6102Z" fill="black" fill-opacity="0.15"/>
<path d="M14.3248 23.7964C14.5059 23.7654 14.6727 23.6829 14.8031 23.5599C14.9335 23.4369 15.0213 23.2793 15.0548 23.108L15.499 20.8311C16.5228 20.4677 17.476 19.9464 18.3198 19.2881L20.62 20.0623C20.7933 20.1203 20.9811 20.127 21.1585 20.0816C21.3359 20.0361 21.4944 19.9406 21.6131 19.8078L21.6641 19.7515C22.6487 18.6506 23.4069 17.4077 23.919 16.0576L23.9445 15.9879C23.9926 15.8647 24.0067 15.7361 23.9926 15.6102C23.9671 15.3986 23.8596 15.1977 23.6814 15.0504L21.8338 13.553L21.8282 13.5503C21.9159 13.0414 21.9611 12.5217 21.9611 12.002C21.9611 11.5493 21.9272 11.0939 21.8593 10.6493C21.8508 10.5903 21.8395 10.5314 21.831 10.4725C21.831 10.4671 21.8282 10.4591 21.8282 10.4537L23.6814 8.95362C23.8766 8.79558 23.9898 8.56789 23.9982 8.33216C24.0011 8.22501 23.9841 8.11518 23.9445 8.01071L23.919 7.94107C23.4088 6.59106 22.6449 5.33959 21.6641 4.24711L21.6131 4.19086C21.4942 4.0584 21.3356 3.96318 21.1583 3.91776C20.981 3.87233 20.7934 3.87882 20.62 3.93638L18.3198 4.71053C17.471 4.05157 16.526 3.53189 15.5018 3.16759H15.499L15.0548 0.890675C15.052 0.877281 15.0491 0.861209 15.0435 0.847815C15.0026 0.685859 14.913 0.538626 14.7854 0.424018C14.6578 0.30941 14.4978 0.232362 14.3248 0.202243L14.2484 0.18885C12.7744 -0.0629499 11.2239 -0.0629499 9.74982 0.18885L9.67343 0.202243C9.49235 0.233308 9.32553 0.315803 9.19514 0.438769C9.06476 0.561734 8.97698 0.71935 8.94347 0.890675L8.49644 3.1783C7.4804 3.54268 6.53421 4.06208 5.69542 4.71589L3.37821 3.93638C3.20496 3.87836 3.01716 3.87164 2.83977 3.91709C2.66239 3.96255 2.50381 4.05803 2.38512 4.19086L2.33419 4.24711C1.35453 5.34036 0.590698 6.59163 0.0792265 7.94107L0.0537627 8.01071C-0.00519718 8.16639 -0.0154702 8.33487 0.0241754 8.49594C0.0638211 8.65701 0.151702 8.80384 0.277278 8.9188C0.291425 8.92952 0.302742 8.94291 0.316889 8.95362L2.19272 10.4698V10.4725C2.10502 10.9761 2.06258 11.4877 2.06258 11.9993C2.06258 12.5136 2.10502 13.028 2.19272 13.5289L0.316889 15.045C0.177109 15.1583 0.0770662 15.3092 0.0300643 15.4777C-0.0169376 15.6461 -0.00867185 15.8241 0.0537627 15.9879L0.0792265 16.0576C0.591332 17.4077 1.34959 18.6533 2.33419 19.7515L2.38512 19.8078C2.52375 19.9605 2.70766 20.0596 2.90854 20.0944C3.06132 20.1212 3.22259 20.1132 3.37821 20.0623L5.69542 19.2828C5.69824 19.2855 5.7039 19.2881 5.70673 19.2908C6.54704 19.9417 7.48354 20.4587 8.49644 20.8204L8.94347 23.108C8.97698 23.2793 9.06476 23.4369 9.19514 23.5599C9.32553 23.6829 9.49235 23.7654 9.67343 23.7964L9.74982 23.8098C10.4883 23.9357 11.2437 24 11.9991 24H12.0076C12.7602 24 13.5156 23.9357 14.2484 23.8098L14.3248 23.7964V23.7964ZM13.1988 22.0151C12.3997 22.1008 11.5929 22.1008 10.7938 22.0151L10.2874 19.4114L9.21791 19.0229C8.41156 18.7336 7.66179 18.3211 6.99124 17.7988L6.10284 17.105L3.46026 17.9943C2.97927 17.3809 2.57751 16.7192 2.25497 16.0228L4.3911 14.295L4.2072 13.2235C4.13929 12.8244 4.10251 12.4119 4.10251 12.0047C4.10251 11.5948 4.13646 11.185 4.2072 10.7859L4.3911 9.71438L2.25497 7.98661C2.57468 7.28746 2.97927 6.62849 3.46026 6.01507L6.10284 6.9044L6.99124 6.21061C7.66179 5.68826 8.41156 5.27574 9.21791 4.98644L10.2902 4.60338L10.7967 1.99967C11.5917 1.91395 12.4037 1.91395 13.2016 1.99967L13.708 4.59802L14.786 4.98108C15.598 5.27038 16.3534 5.68291 17.0296 6.20794L17.9181 6.89905L20.5437 6.01775C21.0246 6.63117 21.4264 7.29282 21.7489 7.98928L19.6354 9.70099L19.8193 10.7698C19.8901 11.1743 19.9269 11.5895 19.9269 12.0047C19.9269 12.4199 19.8901 12.8351 19.8193 13.2396L19.6326 14.3137L21.7461 16.0254C21.4257 16.7243 21.0213 17.3858 20.5408 17.997L17.9152 17.1157L17.0268 17.8068C16.3506 18.3318 15.598 18.7444 14.7832 19.0337L13.7052 19.4167L13.1988 22.0151V22.0151Z" fill="#FFFEFE"/>
</svg>
