<svg width="24" height="24" viewBox="0 0 24 24" fill="none" xmlns="http://www.w3.org/2000/svg">
<path d="M14.438 0C14.6242 5.71854e-06 14.8056 0.0576066 14.9561 0.164507C15.1066 0.271408 15.2184 0.422092 15.2753 0.594857L16.2428 3.52457C16.6492 3.71829 17.0379 3.936 17.4091 4.18114L20.4979 3.53314C20.6801 3.49525 20.8698 3.51467 21.0399 3.58861C21.21 3.66255 21.3516 3.78718 21.4443 3.94457L23.8823 8.05714C23.9754 8.21444 24.0149 8.39649 23.995 8.57703C23.975 8.75758 23.8968 8.9273 23.7715 9.06171L21.6519 11.3417C21.6827 11.7789 21.6827 12.2177 21.6519 12.6549L23.7715 14.9383C23.8968 15.0727 23.975 15.2424 23.995 15.423C24.0149 15.6035 23.9754 15.7856 23.8823 15.9429L21.4443 20.0571C21.3513 20.2142 21.2096 20.3385 21.0396 20.4121C20.8695 20.4857 20.6799 20.5049 20.4979 20.4669L17.4091 19.8189C17.0397 20.0623 16.6492 20.2817 16.2446 20.4754L15.2753 23.4051C15.2184 23.5779 15.1066 23.7286 14.9561 23.8355C14.8056 23.9424 14.6242 24 14.438 24H9.56196C9.37576 24 9.19435 23.9424 9.04388 23.8355C8.89341 23.7286 8.78164 23.5779 8.72466 23.4051L7.75894 20.4771C7.35369 20.284 6.96282 20.0635 6.58918 19.8171L3.50206 20.4669C3.31993 20.5048 3.13017 20.4853 2.9601 20.4114C2.79002 20.3375 2.64842 20.2128 2.55569 20.0554L0.117655 15.9429C0.0245565 15.7856 -0.014877 15.6035 0.00504009 15.423C0.0249572 15.2424 0.103196 15.0727 0.228475 14.9383L2.34812 12.6549C2.31742 12.2188 2.31742 11.7812 2.34812 11.3451L0.228475 9.06171C0.103196 8.9273 0.0249572 8.75758 0.00504009 8.57703C-0.014877 8.39649 0.0245565 8.21444 0.117655 8.05714L2.55569 3.94286C2.64868 3.78578 2.79039 3.6615 2.96044 3.58788C3.13049 3.51426 3.32012 3.49509 3.50206 3.53314L6.58918 4.18286C6.9621 3.93771 7.3526 3.71657 7.75894 3.52286L8.72642 0.594857C8.78321 0.422648 8.89445 0.272363 9.04422 0.165514C9.19399 0.0586653 9.3746 0.000729716 9.5602 0H14.4363H14.438ZM13.7942 1.71429H10.2058L9.20664 4.74343L8.53292 5.064C8.20173 5.22195 7.88201 5.4018 7.576 5.60229L6.9533 6.01371L3.75888 5.34171L1.96465 8.37257L4.15466 10.7349L4.10189 11.4617C4.07662 11.8201 4.07662 12.1799 4.10189 12.5383L4.15466 13.2651L1.96113 15.6274L3.75712 18.6583L6.95154 17.988L7.57424 18.3977C7.88025 18.5982 8.19997 18.778 8.53116 18.936L9.20488 19.2566L10.2058 22.2857H13.7977L14.8004 19.2549L15.4724 18.936C15.8032 18.7784 16.1224 18.5986 16.4275 18.3977L17.0485 17.988L20.2446 18.6583L22.0389 15.6274L19.8471 13.2651L19.8999 12.5383C19.9252 12.1793 19.9252 11.819 19.8999 11.46L19.8471 10.7331L22.0406 8.37257L20.2446 5.34171L17.0485 6.01029L16.4275 5.60229C16.1224 5.4014 15.8032 5.22153 15.4724 5.064L14.8004 4.74514L13.796 1.71429H13.7942ZM12 6.85714C13.3996 6.85714 14.7418 7.39898 15.7315 8.36345C16.7212 9.32792 17.2771 10.636 17.2771 12C17.2771 13.364 16.7212 14.6721 15.7315 15.6365C14.7418 16.601 13.3996 17.1429 12 17.1429C10.6004 17.1429 9.25816 16.601 8.2685 15.6365C7.27885 14.6721 6.72287 13.364 6.72287 12C6.72287 10.636 7.27885 9.32792 8.2685 8.36345C9.25816 7.39898 10.6004 6.85714 12 6.85714V6.85714ZM12 8.57143C11.0669 8.57143 10.1721 8.93265 9.51234 9.57563C8.85257 10.2186 8.48191 11.0907 8.48191 12C8.48191 12.9093 8.85257 13.7814 9.51234 14.4244C10.1721 15.0673 11.0669 15.4286 12 15.4286C12.9331 15.4286 13.8279 15.0673 14.4877 14.4244C15.1474 13.7814 15.5181 12.9093 15.5181 12C15.5181 11.0907 15.1474 10.2186 14.4877 9.57563C13.8279 8.93265 12.9331 8.57143 12 8.57143V8.57143Z" fill="#D9D9D9"/>
</svg>
