<svg width="55" height="50" viewBox="0 0 55 50" fill="none" xmlns="http://www.w3.org/2000/svg">
<path fill-rule="evenodd" clip-rule="evenodd" d="M27.5046 12.6574L14.7021 12.7164V12.6574C14.7021 12.5884 14.7027 12.5195 14.7039 12.4508H40.3054C40.3066 12.5195 40.3071 12.5884 40.3071 12.6574H27.5046ZM40.3054 12.4508C40.1922 5.60104 34.4578 0 27.5046 0C20.5514 0 14.8171 5.60104 14.7039 12.4508H10.8528C4.85895 12.4508 0 17.2547 0 23.1806V27.6162H55V23.1806C55 17.2547 50.141 12.4508 44.1472 12.4508H40.3054ZM0 35.6021V39.2703C0 45.1962 4.85895 50 10.8528 50H44.1472C50.141 50 55 45.1962 55 39.2703V35.6021H0ZM19.2383 12.1262L27.5047 12.0869H35.7711C35.7711 7.60223 32.0408 3.91418 27.5047 3.91418C22.9686 3.91418 19.2383 7.60223 19.2383 12.0869V12.1262Z" fill="#FFFEFE"/>
</svg>
